<?xml version="1.0" encoding="UTF-8"?>
<svg xmlns="http://www.w3.org/2000/svg" viewBox="0 0 32 32">
  <!-- Dark background matching original Honda wing image -->
  <rect width="32" height="32" fill="#2d3436"/>
  
  <!-- Wing paths - white wing on dark background -->
  <g transform="translate(0, 32) scale(0.0016, -0.0016)" fill="#f5f5f5">
    <path d="M16020 14271 c-36 -15 -252 -109 -480 -208 -228 -99 -489 -212 -580 -251 -283 -120 -796 -340 -1000 -429 -107 -46 -294 -127 -415 -179 -121 -52 -254 -110 -295 -128 -41 -19 -115 -50 -165 -71 -49 -20 -128 -54 -175 -75 -47 -21 -134 -59 -195 -84 -60 -26 -126 -54 -145 -62 -19 -9 -98 -43 -175 -76 -77 -32 -189 -81 -250 -108 -60 -27 -200 -88 -310 -135 -110 -48 -213 -92 -230 -99 -16 -8 -75 -33 -130 -56 -55 -24 -155 -67 -222 -97 -68 -29 -125 -53 -127 -53 -3 0 -40 -16 -83 -36 -89 -42 -250 -112 -433 -189 -167 -70 -286 -121 -595 -258 -143 -63 -298 -130 -345 -150 -47 -19 -146 -61 -220 -92 -74 -31 -169 -72 -210 -90 -41 -18 -169 -74 -285 -125 -115 -50 -224 -97 -240 -105 -59 -27 -571 -248 -625 -270 -30 -12 -132 -56 -227 -98 -94 -42 -194 -85 -221 -96 -27 -11 -69 -29 -93 -40 -24 -11 -114 -50 -199 -86 -85 -37 -189 -82 -230 -100 -347 -153 -699 -303 -910 -390 -30 -13 -95 -42 -145 -65 -49 -23 -121 -55 -160 -70 -38 -16 -104 -44 -145 -63 -41 -20 -113 -51 -160 -70 -91 -37 -620 -263 -691 -295 -24 -11 -69 -31 -99 -45 -231 -103 -339 -164 -471 -268 -303 -240 -449 -525 -449 -878 0 -283 94 -523 305 -775 73 -89 688 -726 1404 -1456 83 -85 166 -198 217 -297 l35 -66 507 2 c278 1 507 3 509 4 5 5 -1048 1046 -1407 1391 -262 251 -683 669 -723 716 -205 242 -195 587 25 802 112 109 218 159 778 363 508 185 870 316 975 352 72 24 186 65 255 90 69 25 240 88 380 140 456 168 493 182 625 228 187 66 322 114 560 201 116 42 264 96 330 120 134 48 568 206 715 261 52 19 124 45 160 57 36 13 164 59 285 104 121 44 299 108 395 142 96 34 227 81 290 105 63 25 196 73 295 109 333 119 650 234 675 244 14 6 79 30 145 53 66 22 235 83 375 136 396 147 457 169 590 217 69 24 143 51 165 59 22 9 92 35 155 58 63 23 149 54 190 69 126 47 313 114 590 214 800 288 1009 370 1177 458 571 299 1019 955 1208 1768 14 63 28 123 31 133 7 23 -8 21 -86 -12z"/>
    <path d="M15060 11865 c-41 -12 -142 -46 -225 -75 -82 -28 -456 -155 -830 -281 -374 -125 -1008 -339 -1410 -475 -401 -135 -883 -297 -1070 -359 -187 -62 -709 -238 -1160 -390 -451 -152 -1020 -344 -1265 -425 -245 -82 -499 -168 -565 -190 -109 -38 -1050 -357 -1815 -615 -168 -57 -321 -107 -340 -113 -19 -6 -147 -49 -285 -95 -137 -47 -403 -137 -590 -200 -394 -133 -461 -162 -530 -232 -72 -71 -98 -131 -99 -225 -1 -107 34 -174 162 -310 l99 -105 79 22 c43 11 203 55 354 96 151 42 451 121 665 176 435 111 677 174 995 260 118 32 238 64 265 70 28 7 100 25 162 42 101 28 112 33 123 60 29 69 70 118 119 143 27 14 120 43 208 65 143 37 354 93 848 227 94 26 220 59 280 74 61 15 202 53 315 83 113 31 324 88 470 128 146 39 342 91 435 114 94 24 361 96 595 160 234 64 459 126 500 137 41 11 158 42 260 69 102 28 280 75 395 105 116 29 244 63 285 75 104 29 478 130 700 190 329 88 571 164 690 216 135 59 335 194 478 321 144 129 332 353 439 526 77 124 222 412 268 531 21 55 48 126 60 158 13 31 20 59 16 61 -3 2 -40 -7 -81 -19z"/>
    <path d="M14079 9896 c-2 -2 -202 -54 -444 -116 -873 -220 -1432 -361 -1510 -379 -44 -11 -224 -56 -400 -101 -176 -45 -741 -187 -1255 -316 -514 -129 -1227 -308 -1585 -398 -357 -91 -1172 -295 -1810 -455 -638 -160 -1180 -298 -1205 -305 -25 -8 -173 -45 -330 -82 -157 -37 -287 -69 -290 -71 -5 -5 339 -351 362 -364 12 -7 54 -3 130 11 62 11 280 49 483 85 204 36 462 83 575 105 113 22 302 57 420 79 118 22 298 56 400 76 102 20 313 58 470 86 157 27 377 68 490 90 113 22 217 42 232 45 17 3 41 24 65 56 60 78 93 93 313 134 107 20 238 44 290 55 52 10 223 43 380 73 157 30 350 69 430 85 80 17 264 54 410 81 248 47 567 109 1285 250 165 32 374 73 465 90 385 72 611 126 752 179 71 27 224 119 303 181 81 65 246 236 326 340 82 106 173 249 245 386 54 101 55 104 32 104 -14 0 -27 -2 -29 -4z"/>
    <path d="M12895 8429 c-171 -29 -340 -59 -455 -80 -274 -50 -510 -92 -560 -100 -30 -4 -199 -33 -375 -64 -176 -31 -423 -74 -550 -95 -126 -22 -295 -52 -375 -66 -80 -14 -206 -36 -280 -49 -277 -49 -649 -116 -785 -141 -77 -14 -216 -38 -310 -54 -93 -16 -210 -36 -260 -45 -96 -17 -286 -50 -665 -114 -220 -37 -345 -59 -840 -147 -278 -49 -1011 -174 -1140 -194 -48 -7 -403 -68 -500 -85 -19 -4 -41 -9 -49 -11 -14 -4 496 -513 544 -543 23 -15 186 -1 1165 99 217 22 458 47 535 55 77 8 194 19 260 25 66 5 183 17 260 25 77 8 293 30 480 50 187 19 405 42 485 50 80 8 266 26 414 40 148 13 270 26 270 27 1 2 10 28 19 58 29 95 88 156 175 179 23 7 137 25 254 41 117 16 299 43 403 59 105 16 351 53 548 81 398 57 467 72 588 126 277 126 503 319 732 627 64 86 167 247 167 261 0 9 -33 6 -155 -15z"/>
    <path d="M10275 6809 c-55 -4 -208 -17 -340 -29 -283 -24 -1124 -95 -1310 -110 -71 -6 -229 -20 -350 -30 -121 -11 -249 -22 -285 -25 -285 -22 -582 -47 -670 -55 -58 -6 -211 -20 -340 -30 -384 -32 -499 -43 -511 -50 -7 -5 64 -81 187 -201 110 -107 290 -284 401 -394 158 -156 208 -200 228 -199 14 0 1088 1 2387 2 l2362 2 -101 73 c-56 39 -195 139 -310 221 -114 82 -271 195 -348 251 -77 56 -207 148 -290 205 -82 57 -193 135 -245 174 -52 39 -140 101 -195 138 -110 75 -93 71 -270 57z"/>
  </g>
</svg>